<?xml version="1.0" standalone="no"?>
<!DOCTYPE svg PUBLIC "-//W3C//DTD SVG 20010904//EN"
 "http://www.w3.org/TR/2001/REC-SVG-20010904/DTD/svg10.dtd">
<svg version="1.0" xmlns="http://www.w3.org/2000/svg"
 width="1774.000000pt" height="887.000000pt" viewBox="0 0 1774.000000 887.000000"
 preserveAspectRatio="xMidYMid meet">

<g transform="translate(0.000000,887.000000) scale(0.100000,-0.100000)"
fill="#000000" stroke="none">
<path d="M7090 5383 c-502 -35 -860 -153 -1087 -357 -110 -99 -213 -274 -249
-421 -24 -99 -24 -296 0 -395 90 -367 387 -598 896 -700 197 -39 297 -50 555
-57 556 -15 1006 68 1285 238 100 61 238 196 289 282 79 135 113 266 113 437
0 250 -84 447 -261 612 -217 201 -554 317 -1036 358 -110 9 -396 11 -505 3z
m357 -323 c289 -39 498 -217 569 -485 24 -92 24 -255 0 -345 -61 -231 -234
-396 -483 -461 -112 -29 -306 -29 -427 0 -231 56 -416 218 -481 425 -52 161
-40 346 30 494 103 216 272 331 555 375 51 8 161 7 237 -3z"/>
<path d="M2228 5293 l-38 -4 0 -120 0 -119 78 0 c108 0 236 -16 270 -34 17 -9
35 -29 41 -47 7 -22 11 -202 11 -570 l0 -537 -24 -29 c-34 -40 -84 -53 -241
-60 l-135 -6 0 -119 0 -118 785 0 785 0 0 118 0 119 -130 6 c-211 9 -240 32
-240 191 l0 81 88 50 c48 27 148 84 223 126 l137 76 193 -165 c107 -90 236
-198 287 -240 77 -63 90 -78 79 -89 -17 -17 -113 -33 -204 -33 l-73 0 0 -120
0 -120 820 0 820 0 0 120 0 120 -72 0 c-99 1 -212 16 -247 34 -29 15 -974 821
-978 834 -1 4 138 87 310 184 211 120 331 182 372 193 71 18 245 35 368 35
l87 0 0 125 0 125 -737 -2 -738 -3 -3 -121 -3 -121 103 -6 c107 -5 162 -19
156 -38 -5 -14 -963 -559 -982 -559 -4 0 -6 117 -4 259 3 242 4 260 23 281 34
38 80 50 216 57 l129 6 0 124 0 123 -747 -2 c-412 -1 -765 -3 -785 -5z"/>
<path d="M9058 5293 l-28 -4 0 -118 0 -118 138 -7 c156 -7 205 -18 238 -51
l24 -24 0 -556 c0 -362 -4 -563 -10 -576 -6 -10 -23 -25 -38 -33 -37 -19 -163
-36 -268 -36 l-84 0 0 -120 0 -121 1238 3 1237 3 100 28 c195 53 385 167 489
293 144 175 204 365 193 604 -10 197 -69 354 -186 496 -148 178 -406 305 -681
334 -91 9 -2301 12 -2362 3z m1940 -309 c150 -31 283 -126 349 -251 56 -104
77 -194 77 -318 0 -132 -13 -195 -61 -295 -43 -90 -141 -193 -220 -234 -102
-51 -146 -56 -545 -56 l-368 0 0 585 0 585 345 0 c277 0 361 -3 423 -16z"/>
<path d="M12436 5293 c-3 -4 -6 -59 -6 -123 l0 -117 143 -6 c164 -8 204 -17
238 -53 l24 -26 3 -544 c3 -599 4 -587 -59 -619 -34 -18 -161 -35 -265 -35
-56 0 -73 -3 -78 -16 -3 -9 -6 -63 -6 -120 l0 -104 1495 0 1495 0 0 340 0 340
-199 0 -199 0 -12 -37 c-24 -74 -85 -177 -134 -226 -28 -29 -78 -63 -115 -81
l-66 -31 -528 -3 -527 -3 2 223 3 223 250 0 c225 0 254 -2 278 -18 36 -23 63
-68 71 -118 l6 -39 145 0 145 0 0 320 0 320 -144 0 -144 0 -12 -49 c-13 -56
-50 -97 -101 -111 -18 -6 -139 -10 -267 -10 l-232 0 2 213 3 212 554 3 c363 1
567 -1 592 -8 78 -21 175 -140 206 -252 l16 -58 194 0 193 0 0 310 0 310
-1479 0 c-813 -1 -1481 -4 -1485 -7z"/>
<path d="M15131 3435 c-164 -51 -197 -288 -53 -389 49 -35 136 -46 197 -26 78
26 145 122 145 206 0 92 -67 183 -153 209 -60 18 -78 18 -136 0z m136 -36 c34
-13 80 -55 99 -91 8 -15 14 -50 14 -78 0 -98 -65 -173 -162 -186 -93 -13 -180
58 -194 158 -11 79 33 165 101 194 37 16 104 18 142 3z"/>
<path d="M15144 3331 c-72 -44 -70 -177 3 -210 57 -26 153 2 153 45 0 19 -44
18 -60 -1 -7 -8 -22 -15 -34 -15 -61 1 -89 88 -41 135 27 28 57 32 75 10 11
-13 60 -22 60 -11 0 32 -50 66 -97 66 -15 0 -42 -9 -59 -19z"/>
<path d="M14037 3354 c-13 -14 -7 -33 13 -39 18 -6 20 -15 20 -95 0 -80 -2
-88 -21 -93 -13 -4 -20 -12 -17 -24 3 -15 14 -18 73 -18 65 0 70 2 73 23 3 17
-2 22 -17 22 -20 0 -21 6 -21 89 0 82 2 90 21 96 12 4 19 14 17 23 -3 13 -17
18 -69 20 -35 2 -68 0 -72 -4z"/>
<path d="M14210 3342 c0 -11 7 -22 15 -26 12 -4 15 -25 15 -95 0 -82 -2 -90
-21 -96 -12 -4 -19 -14 -17 -23 3 -13 17 -18 66 -20 61 -3 62 -2 62 23 0 16
-6 25 -15 25 -9 0 -15 10 -16 23 -4 77 -3 107 1 107 3 0 31 -41 62 -90 55 -85
60 -90 93 -90 l35 0 0 116 c0 108 1 116 20 121 13 3 20 12 18 22 -3 13 -16 16
-63 16 -50 0 -60 -3 -63 -18 -3 -12 4 -20 17 -24 18 -5 21 -13 21 -66 0 -33
-3 -57 -7 -53 -4 4 -30 42 -58 84 l-50 77 -58 3 c-51 3 -57 1 -57 -16z"/>
<path d="M14554 3345 c-7 -18 3 -35 22 -35 11 0 14 -18 14 -89 0 -81 -2 -89
-21 -94 -13 -4 -20 -12 -17 -24 5 -27 187 -31 238 -6 89 45 94 191 7 243 -26
16 -50 20 -135 20 -80 0 -104 -3 -108 -15z m210 -57 c9 -13 16 -43 16 -68 0
-60 -31 -93 -81 -88 l-34 3 -3 88 -3 87 45 0 c35 0 48 -5 60 -22z"/>
</g>
</svg>
